<?xml version="1.0" standalone="no"?>
<!DOCTYPE svg PUBLIC "-//W3C//DTD SVG 20010904//EN"
 "http://www.w3.org/TR/2001/REC-SVG-20010904/DTD/svg10.dtd">
<svg version="1.0" xmlns="http://www.w3.org/2000/svg"
 width="440.000000pt" height="440.000000pt" viewBox="0 0 440.000000 440.000000"
 preserveAspectRatio="xMidYMid meet">
<metadata>
Created by potrace 1.14, written by Peter Selinger 2001-2017
</metadata>
<g transform="translate(0.000000,440.000000) scale(0.100000,-0.100000)"
fill="#000000" stroke="none">
<path d="M605 4001 c-69 -18 -108 -48 -141 -111 -17 -32 -19 -60 -19 -290 0
-278 1 -283 62 -344 52 -53 71 -56 342 -56 152 0 261 4 278 11 38 14 81 56
104 101 17 34 19 61 19 291 0 246 -1 255 -23 298 -16 29 -40 54 -72 74 l-48
30 -236 2 c-130 1 -249 -2 -266 -6z m494 -157 c20 -25 21 -39 21 -246 l0 -219
-25 -24 -24 -25 -221 0 -221 0 -24 25 -25 24 0 222 c0 296 -27 269 271 269
l228 0 20 -26z"/>
<path d="M739 3721 c-20 -16 -24 -30 -27 -95 -8 -143 4 -156 137 -156 128 0
131 3 131 131 0 52 -4 99 -8 105 -16 24 -54 34 -130 34 -63 0 -85 -4 -103 -19z"/>
<path d="M3293 4001 c-60 -15 -114 -62 -139 -120 -11 -26 -14 -90 -14 -283 0
-225 2 -252 19 -286 22 -43 53 -73 98 -96 27 -13 72 -16 286 -16 246 0 255 1
298 23 29 16 54 40 74 72 l30 48 3 231 c2 150 -1 246 -8 275 -15 59 -51 106
-103 134 -40 21 -55 22 -277 24 -129 1 -250 -2 -267 -6z m497 -151 c19 -19 20
-33 20 -249 l0 -230 -26 -20 c-25 -20 -39 -21 -244 -21 -200 0 -220 2 -241 19
-24 19 -24 19 -24 251 0 232 0 232 24 251 21 17 42 19 247 19 211 0 225 -1
244 -20z"/>
<path d="M3445 3729 c-32 -19 -35 -29 -35 -130 0 -126 3 -129 131 -129 130 0
133 3 137 122 3 82 1 97 -16 118 -18 23 -28 25 -109 28 -55 1 -96 -2 -108 -9z"/>
<path d="M1979 3360 c-374 -34 -638 -265 -741 -648 -26 -99 -36 -371 -18 -494
47 -326 229 -575 498 -684 98 -39 171 -54 316 -64 159 -11 201 -22 249 -61 19
-16 77 -99 132 -190 101 -167 122 -189 198 -210 53 -14 104 -1 148 38 70 63
65 107 -28 261 -71 117 -137 193 -196 223 l-39 20 79 49 c90 55 200 166 252
254 165 279 186 730 47 1030 -158 342 -479 513 -897 476z m243 -281 c117 -25
222 -98 292 -204 115 -172 148 -481 80 -740 -50 -193 -184 -334 -361 -380 -73
-19 -210 -19 -292 0 -181 43 -311 184 -368 400 -14 57 -18 107 -18 265 0 174
3 204 23 275 58 199 175 327 345 376 72 21 220 24 299 8z"/>
<path d="M3079 1721 l-24 -19 0 -312 0 -312 24 -19 c30 -25 92 -25 122 0 23
19 24 24 29 224 5 189 7 208 26 234 31 42 77 64 150 73 79 10 104 29 104 80 0
51 -24 70 -86 70 -65 0 -150 -42 -181 -89 l-23 -34 0 40 c0 53 -28 83 -79 83
-23 0 -48 -8 -62 -19z"/>
<path d="M565 1296 c-42 -18 -92 -72 -107 -115 -9 -25 -13 -108 -13 -281 0
-243 0 -245 25 -290 28 -50 74 -85 133 -101 25 -7 127 -9 272 -7 l232 3 48 30
c32 20 56 45 72 74 22 43 23 52 23 297 0 154 -4 264 -11 281 -14 38 -56 81
-101 104 -34 17 -60 19 -290 19 -186 -1 -261 -4 -283 -14z m530 -141 l25 -24
0 -219 c0 -207 -1 -221 -21 -246 l-20 -26 -227 0 c-299 0 -272 -27 -272 271
l0 228 26 20 c25 20 39 21 246 21 l219 0 24 -25z"/>
<path d="M736 1024 c-23 -23 -29 -55 -24 -139 5 -105 12 -110 139 -110 127 0
129 2 129 135 0 127 -3 130 -133 130 -73 0 -99 -4 -111 -16z"/>
</g>
</svg>
