<svg width="1307" height="266" viewBox="0 0 1307 266" fill="none" xmlns="http://www.w3.org/2000/svg">
<g clip-path="url(#clip0_3_2)">
<rect x="23" y="24" width="20" height="20" rx="5" fill="black"/>
<rect x="8" y="9" width="50" height="50" rx="10" stroke="black" stroke-width="10"/>
<rect x="23" y="224" width="20" height="20" rx="5" fill="black"/>
<rect x="8" y="209" width="50" height="50" rx="10" stroke="black" stroke-width="10"/>
<rect x="223" y="24" width="20" height="20" rx="5" fill="black"/>
<rect x="208" y="9" width="50" height="50" rx="10" stroke="black" stroke-width="10"/>
<path d="M176.335 210.11C177.765 212.45 178.48 214.725 178.48 216.935C178.48 219.925 177.31 222.33 174.97 224.15C172.63 226.1 169.9 227.075 166.78 227.075C164.44 227.075 162.23 226.49 160.15 225.32C158.07 224.28 156.38 222.655 155.08 220.445L143.575 201.53C141.755 198.54 139.35 196.33 136.36 194.9C133.5 193.47 129.73 192.755 125.05 192.755C111.66 192.755 100.025 189.895 90.145 184.175C80.395 178.455 72.855 170.265 67.525 159.605C62.195 148.945 59.53 136.465 59.53 122.165C59.53 107.865 62.195 95.45 67.525 84.92C72.855 74.26 80.395 66.07 90.145 60.35C100.025 54.63 111.66 51.77 125.05 51.77C138.31 51.77 149.815 54.63 159.565 60.35C169.445 66.07 177.05 74.26 182.38 84.92C187.71 95.45 190.375 107.865 190.375 122.165C190.375 137.635 187.255 150.96 181.015 162.14C174.905 173.19 166.13 181.25 154.69 186.32C160.67 188.4 165.61 192.69 169.51 199.19L176.335 210.11ZM125.05 172.67C137.66 172.67 147.475 168.315 154.495 159.605C161.645 150.895 165.22 138.415 165.22 122.165C165.22 105.915 161.645 93.5 154.495 84.92C147.475 76.21 137.66 71.855 125.05 71.855C112.31 71.855 102.365 76.21 95.215 84.92C88.195 93.5 84.685 105.915 84.685 122.165C84.685 138.415 88.195 150.895 95.215 159.605C102.365 168.315 112.31 172.67 125.05 172.67Z" fill="black"/>
<path d="M335.99 225.56C326.5 225.56 318.115 223.545 310.835 219.515C303.685 215.485 298.16 209.765 294.26 202.355C290.36 194.945 288.41 186.3 288.41 176.42C288.41 166.54 290.425 157.83 294.455 150.29C298.615 142.62 304.4 136.705 311.81 132.545C319.22 128.385 327.735 126.305 337.355 126.305C342.425 126.305 347.495 127.02 352.565 128.45C357.765 129.88 362.315 131.83 366.215 134.3C370.375 137.03 372.455 140.475 372.455 144.635C372.455 147.495 371.74 149.835 370.31 151.655C369.01 153.345 367.255 154.19 365.045 154.19C363.615 154.19 362.12 153.865 360.56 153.215C359 152.565 357.44 151.785 355.88 150.875C353.02 149.185 350.29 147.885 347.69 146.975C345.09 145.935 342.1 145.415 338.72 145.415C330.66 145.415 324.42 148.08 320 153.41C315.71 158.61 313.565 166.15 313.565 176.03C313.565 185.78 315.71 193.32 320 198.65C324.42 203.85 330.66 206.45 338.72 206.45C341.97 206.45 344.83 205.995 347.3 205.085C349.9 204.045 352.76 202.68 355.88 200.99C357.83 199.82 359.52 198.975 360.95 198.455C362.38 197.805 363.81 197.48 365.24 197.48C367.32 197.48 369.075 198.39 370.505 200.21C371.935 202.03 372.65 204.305 372.65 207.035C372.65 209.245 372.13 211.195 371.09 212.885C370.18 214.445 368.62 215.875 366.41 217.175C362.38 219.775 357.7 221.855 352.37 223.415C347.04 224.845 341.58 225.56 335.99 225.56ZM432.375 225.56C422.625 225.56 414.045 223.545 406.635 219.515C399.355 215.485 393.7 209.7 389.67 202.16C385.64 194.62 383.625 185.845 383.625 175.835C383.625 165.825 385.64 157.115 389.67 149.705C393.7 142.165 399.355 136.38 406.635 132.35C414.045 128.32 422.625 126.305 432.375 126.305C442.125 126.305 450.64 128.32 457.92 132.35C465.33 136.38 470.985 142.165 474.885 149.705C478.915 157.115 480.93 165.825 480.93 175.835C480.93 185.845 478.915 194.62 474.885 202.16C470.985 209.7 465.33 215.485 457.92 219.515C450.64 223.545 442.125 225.56 432.375 225.56ZM432.18 206.645C440.11 206.645 446.155 204.045 450.315 198.845C454.475 193.645 456.555 185.975 456.555 175.835C456.555 165.825 454.475 158.22 450.315 153.02C446.155 147.69 440.175 145.025 432.375 145.025C424.575 145.025 418.53 147.69 414.24 153.02C410.08 158.22 408 165.825 408 175.835C408 185.975 410.08 193.645 414.24 198.845C418.4 204.045 424.38 206.645 432.18 206.645ZM580.613 85.55C584.253 85.55 587.243 86.59 589.583 88.67C591.923 90.75 593.093 93.48 593.093 96.86V213.47C593.093 216.98 591.988 219.775 589.778 221.855C587.568 223.935 584.643 224.975 581.003 224.975C577.363 224.975 574.438 223.935 572.228 221.855C570.018 219.775 568.913 216.98 568.913 213.47V208.595C566.053 213.925 561.893 218.085 556.433 221.075C551.103 224.065 544.993 225.56 538.103 225.56C529.913 225.56 522.568 223.48 516.068 219.32C509.698 215.16 504.693 209.31 501.053 201.77C497.543 194.1 495.788 185.325 495.788 175.445C495.788 165.565 497.543 156.92 501.053 149.51C504.693 142.1 509.698 136.38 516.068 132.35C522.438 128.32 529.783 126.305 538.103 126.305C544.993 126.305 551.103 127.735 556.433 130.595C561.763 133.455 565.858 137.485 568.718 142.685V96.47C568.718 93.22 569.758 90.62 571.838 88.67C574.048 86.59 576.973 85.55 580.613 85.55ZM544.538 206.645C552.338 206.645 558.318 203.98 562.478 198.65C566.768 193.32 568.913 185.715 568.913 175.835C568.913 165.955 566.768 158.415 562.478 153.215C558.318 147.885 552.403 145.22 544.733 145.22C536.933 145.22 530.888 147.82 526.598 153.02C522.308 158.22 520.163 165.695 520.163 175.445C520.163 185.325 522.308 192.995 526.598 198.455C530.888 203.915 536.868 206.645 544.538 206.645ZM693.632 197.87C695.842 197.87 697.597 198.715 698.897 200.405C700.327 202.095 701.042 204.37 701.042 207.23C701.042 211.26 698.637 214.64 693.827 217.37C689.407 219.84 684.402 221.855 678.812 223.415C673.222 224.845 667.892 225.56 662.822 225.56C647.482 225.56 635.327 221.14 626.357 212.3C617.387 203.46 612.902 191.37 612.902 176.03C612.902 166.28 614.852 157.635 618.752 150.095C622.652 142.555 628.112 136.705 635.132 132.545C642.282 128.385 650.342 126.305 659.312 126.305C667.892 126.305 675.367 128.19 681.737 131.96C688.107 135.73 693.047 141.06 696.557 147.95C700.067 154.84 701.822 162.965 701.822 172.325C701.822 177.915 699.352 180.71 694.412 180.71H636.887C637.667 189.68 640.202 196.31 644.492 200.6C648.782 204.76 655.022 206.84 663.212 206.84C667.372 206.84 671.012 206.32 674.132 205.28C677.382 204.24 681.022 202.81 685.052 200.99C688.952 198.91 691.812 197.87 693.632 197.87ZM659.897 143.465C653.267 143.465 647.937 145.545 643.907 149.705C640.007 153.865 637.667 159.845 636.887 167.645H680.957C680.697 159.715 678.747 153.735 675.107 149.705C671.467 145.545 666.397 143.465 659.897 143.465ZM733.266 225.17C729.106 225.17 725.661 223.805 722.931 221.075C720.201 218.215 718.836 214.705 718.836 210.545C718.836 206.385 720.201 202.94 722.931 200.21C725.661 197.35 729.106 195.92 733.266 195.92C737.426 195.92 740.871 197.35 743.601 200.21C746.331 202.94 747.696 206.385 747.696 210.545C747.696 214.705 746.331 218.215 743.601 221.075C740.871 223.805 737.426 225.17 733.266 225.17ZM847.604 126.695C851.244 126.695 854.169 127.735 856.379 129.815C858.589 131.895 859.694 134.69 859.694 138.2V248.765C859.694 252.145 858.524 254.875 856.184 256.955C853.844 259.035 850.854 260.075 847.214 260.075C843.574 260.075 840.649 259.035 838.439 256.955C836.359 255.005 835.319 252.405 835.319 249.155V208.985C832.459 214.185 828.299 218.28 822.839 221.27C817.509 224.13 811.464 225.56 804.704 225.56C796.384 225.56 789.039 223.545 782.669 219.515C776.299 215.485 771.294 209.765 767.654 202.355C764.144 194.945 762.389 186.3 762.389 176.42C762.389 166.54 764.144 157.83 767.654 150.29C771.294 142.62 776.299 136.705 782.669 132.545C789.169 128.385 796.514 126.305 804.704 126.305C811.594 126.305 817.704 127.8 823.034 130.79C828.494 133.65 832.654 137.745 835.514 143.075V138.2C835.514 134.69 836.619 131.895 838.829 129.815C841.039 127.735 843.964 126.695 847.604 126.695ZM811.334 206.645C819.004 206.645 824.919 203.98 829.079 198.65C833.369 193.32 835.514 185.78 835.514 176.03C835.514 166.15 833.369 158.545 829.079 153.215C824.919 147.885 818.939 145.22 811.139 145.22C803.469 145.22 797.489 147.95 793.199 153.41C788.909 158.87 786.764 166.54 786.764 176.42C786.764 186.04 788.909 193.515 793.199 198.845C797.489 204.045 803.534 206.645 811.334 206.645ZM960.039 126.695C963.809 126.695 966.799 127.735 969.009 129.815C971.219 131.895 972.324 134.69 972.324 138.2V213.86C972.324 217.24 971.154 219.97 968.814 222.05C966.604 224.13 963.679 225.17 960.039 225.17C956.529 225.17 953.734 224.195 951.654 222.245C949.574 220.295 948.534 217.63 948.534 214.25V209.375C945.544 214.575 941.514 218.605 936.444 221.465C931.374 224.195 925.654 225.56 919.284 225.56C895.884 225.56 884.184 212.43 884.184 186.17V138.2C884.184 134.69 885.289 131.895 887.499 129.815C889.709 127.735 892.634 126.695 896.274 126.695C900.044 126.695 903.034 127.735 905.244 129.815C907.454 131.895 908.559 134.69 908.559 138.2V186.365C908.559 193.125 909.924 198.13 912.654 201.38C915.384 204.63 919.674 206.255 925.524 206.255C932.284 206.255 937.679 204.045 941.709 199.625C945.869 195.075 947.949 189.095 947.949 181.685V138.2C947.949 134.69 949.054 131.895 951.264 129.815C953.474 127.735 956.399 126.695 960.039 126.695ZM1073.16 197.87C1075.37 197.87 1077.12 198.715 1078.42 200.405C1079.85 202.095 1080.57 204.37 1080.57 207.23C1080.57 211.26 1078.16 214.64 1073.35 217.37C1068.93 219.84 1063.93 221.855 1058.34 223.415C1052.75 224.845 1047.42 225.56 1042.35 225.56C1027.01 225.56 1014.85 221.14 1005.88 212.3C996.913 203.46 992.428 191.37 992.428 176.03C992.428 166.28 994.378 157.635 998.278 150.095C1002.18 142.555 1007.64 136.705 1014.66 132.545C1021.81 128.385 1029.87 126.305 1038.84 126.305C1047.42 126.305 1054.89 128.19 1061.26 131.96C1067.63 135.73 1072.57 141.06 1076.08 147.95C1079.59 154.84 1081.35 162.965 1081.35 172.325C1081.35 177.915 1078.88 180.71 1073.94 180.71H1016.41C1017.19 189.68 1019.73 196.31 1024.02 200.6C1028.31 204.76 1034.55 206.84 1042.74 206.84C1046.9 206.84 1050.54 206.32 1053.66 205.28C1056.91 204.24 1060.55 202.81 1064.58 200.99C1068.48 198.91 1071.34 197.87 1073.16 197.87ZM1039.42 143.465C1032.79 143.465 1027.46 145.545 1023.43 149.705C1019.53 153.865 1017.19 159.845 1016.41 167.645H1060.48C1060.22 159.715 1058.27 153.735 1054.63 149.705C1050.99 145.545 1045.92 143.465 1039.42 143.465ZM1135.8 225.56C1121.63 225.56 1110.19 222.765 1101.48 217.175C1097.32 214.705 1095.24 211.195 1095.24 206.645C1095.24 204.045 1095.96 201.965 1097.39 200.405C1098.82 198.715 1100.57 197.87 1102.65 197.87C1104.86 197.87 1107.92 198.91 1111.82 200.99C1115.98 202.94 1119.75 204.435 1123.13 205.475C1126.64 206.515 1131.06 207.035 1136.39 207.035C1141.85 207.035 1146.07 206.125 1149.06 204.305C1152.18 202.485 1153.74 199.95 1153.74 196.7C1153.74 194.49 1153.09 192.735 1151.79 191.435C1150.62 190.135 1148.41 188.965 1145.16 187.925C1142.04 186.755 1137.23 185.455 1130.73 184.025C1119.16 181.685 1110.84 178.37 1105.77 174.08C1100.83 169.79 1098.36 163.875 1098.36 156.335C1098.36 150.615 1100.05 145.48 1103.43 140.93C1106.81 136.25 1111.43 132.675 1117.28 130.205C1123.26 127.605 1130.02 126.305 1137.56 126.305C1143.02 126.305 1148.28 127.02 1153.35 128.45C1158.42 129.75 1162.97 131.7 1167 134.3C1171.16 136.9 1173.24 140.345 1173.24 144.635C1173.24 147.235 1172.53 149.445 1171.1 151.265C1169.67 152.955 1167.91 153.8 1165.83 153.8C1164.4 153.8 1162.97 153.54 1161.54 153.02C1160.24 152.37 1158.55 151.46 1156.47 150.29C1152.7 148.34 1149.45 146.91 1146.72 146C1143.99 144.96 1140.61 144.44 1136.58 144.44C1131.77 144.44 1127.94 145.415 1125.08 147.365C1122.35 149.315 1120.98 151.98 1120.98 155.36C1120.98 158.61 1122.41 161.08 1125.27 162.77C1128.13 164.46 1133.66 166.15 1141.85 167.84C1150.56 169.66 1157.38 171.74 1162.32 174.08C1167.26 176.42 1170.77 179.345 1172.85 182.855C1175.06 186.365 1176.17 190.85 1176.17 196.31C1176.17 205.15 1172.46 212.235 1165.05 217.565C1157.77 222.895 1148.02 225.56 1135.8 225.56ZM1244.51 207.035C1251.01 207.425 1254.26 210.35 1254.26 215.81C1254.26 218.93 1252.96 221.335 1250.36 223.025C1247.89 224.585 1244.31 225.235 1239.63 224.975L1234.37 224.585C1212.53 223.025 1201.61 211.325 1201.61 189.485V146.975H1191.86C1188.35 146.975 1185.62 146.195 1183.67 144.635C1181.85 143.075 1180.94 140.8 1180.94 137.81C1180.94 134.82 1181.85 132.545 1183.67 130.985C1185.62 129.425 1188.35 128.645 1191.86 128.645H1201.61V110.705C1201.61 107.195 1202.71 104.4 1204.92 102.32C1207.13 100.24 1210.12 99.2 1213.89 99.2C1217.53 99.2 1220.46 100.24 1222.67 102.32C1224.88 104.4 1225.98 107.195 1225.98 110.705V128.645H1242.56C1246.07 128.645 1248.73 129.425 1250.55 130.985C1252.5 132.545 1253.48 134.82 1253.48 137.81C1253.48 140.8 1252.5 143.075 1250.55 144.635C1248.73 146.195 1246.07 146.975 1242.56 146.975H1225.98V191.24C1225.98 200.86 1230.4 205.995 1239.24 206.645L1244.51 207.035Z" fill="black"/>
<path d="M224.983 172.354C226.777 172.216 228.191 172.595 229.226 173.492C230.261 174.389 230.779 175.735 230.779 177.529C230.779 179.392 230.33 180.772 229.433 181.669C228.536 182.566 226.915 183.152 224.569 183.428L221.464 183.739C217.393 184.153 214.391 185.533 212.459 187.879C210.596 190.225 209.665 193.157 209.665 196.676V218.411C209.665 220.412 209.044 221.965 207.802 223.069C206.56 224.103 205.008 224.621 203.144 224.621C201.281 224.621 199.729 224.103 198.487 223.069C197.314 221.965 196.728 220.412 196.728 218.411V178.357C196.728 176.425 197.314 174.941 198.487 173.906C199.729 172.871 201.247 172.354 203.041 172.354C204.835 172.354 206.284 172.871 207.388 173.906C208.492 174.872 209.044 176.287 209.044 178.15V182.29C210.355 179.254 212.287 176.908 214.84 175.252C217.462 173.596 220.36 172.664 223.534 172.457L224.983 172.354Z" fill="black"/>
</g>
<defs>
<clipPath id="clip0_3_2">
<rect width="1307" height="266" fill="white"/>
</clipPath>
</defs>
</svg>
